<?xml version="1.0" encoding="UTF-8"?>
<svg id="Layer_2" data-name="Layer 2" xmlns="http://www.w3.org/2000/svg" viewBox="0 0 68.55 65.94">
  <defs>
    <style>
      .cls-1 {
        fill: #d3e2f9;
        stroke-width: 0px;
      }
    </style>
  </defs>
  <path class="cls-1" d="M33.32,51.1c.93-.06,1.94.32,2.84.51.75.16,1.45.47,2.18.7,1.59.49,3.21.88,4.85,1.15,3.25.53,6.57.62,9.84.25,2.13-.24,4.05,1.59,5.9,2.66.5.29,1.02.63,1.25,1.16.32.73-.02,1.57-.44,2.25s-.95,1.33-1.05,2.12c1.19-1.03,2.37-2.07,3.56-3.1.07-.06.14-.13.14-.23s-.07-.16-.14-.22c-2.1-1.85-4.23-3.74-6.78-4.9-.44-.2-.91-.39-1.23-.75-.26-.29-.4-.66-.59-.99-.48-.82-1.27-1.41-2.14-1.8s-1.8-.58-2.73-.75c1.16.68,2.31,1.37,3.47,2.05.21.12.42.25.57.44s.22.47.1.68-.44.3-.61.13c-3.25-.16-6.48-.36-9.71-.85-.9-.14-1.8-.27-2.7-.41-3.34-.51-6.68-1.02-10.01-1.52-.69-.1-1.48-.28-1.78-.91,5.57-1.35,11.37-2.58,16.94-3.93-1.68-.14-3.36.07-5.03.33-3.34.53-6.64,1.31-10.01,1.65s-6.96.75-9.81-1.07c-1.05-.67-2.07-1.4-3.04-2.19-1.03-.83-2.01-1.73-2.86-2.75-2.72-3.26-3.9-7.74-3.16-11.91.37-2.04,1.16-3.99,1.48-6.04.11-.69.11-1.51-.44-1.94-.59-.46-1.4-.1-2.09.18.62-1.77,1.45-3.46,2.47-5.03.4-.63.85-1.25,1.44-1.71s1.36-.74,2.1-.6c.98.18,1.68,1.01,2.28,1.8,4.24,5.57,7.82,11.71,12.94,16.49,1.09,1.01,2.49,2.02,3.93,1.65-3.26-1.91-6.02-4.59-8.39-7.53-2.37-2.94-4.52-6.07-6.52-9.27.38-.21.57-.69.45-1.1s-.56-.7-.99-.66c.34-.46.69-.93,1.03-1.39.25-.34.51-.77.32-1.14-.16-.32-.57-.41-.93-.43-.6-.03-1.2.02-1.78.17-.38.09-.84.2-1.11-.07-.34-.34-.06-.91.18-1.32.62-1.07.96-2.31.98-3.55-1.9,1.34-3.28,3.28-4.62,5.19.02-.63.03-1.26.05-1.88,0-.19,0-.4-.11-.55-.2-.26-.63-.2-.86.03s-.31.57-.38.89c-.92,4.15-2.43,8.18-4.47,11.91.7-.5,1.44-.78,2.14-1.28.44-.32,1-.65,1.5-.42.54.25.62.99.56,1.58-.25,2.55-1.41,4.93-1.83,7.46-.76,4.6,1.07,9.4,4.22,12.85,3.14,3.45,7.47,5.66,11.95,6.94.1-.22.28-.16.35.07s-.11.47-.32.57-.47.08-.71.07c-2.23-.12-4.52.04-6.57.92s-3.84,2.56-4.45,4.71c.74-1.33,1.94-2.38,3.34-2.96.34-.14.81-.49,1.16-.25-.63,1.01-1.46,1.95-2.22,2.87-.09.11-.18.22-.21.36s.02.3.15.36c.18.07.36-.11.48-.27.67-.93,1.37-1.84,2.23-2.59s1.89-1.35,3.02-1.54c-.07,0-.15,0-.22,0"/>
  <path class="cls-1" d="M42.09,4.43c-.46-.09-.94-.19-1.37,0-.65.28-.89,1.05-1.19,1.69-.16.34-.39.67-.71.88-.15.1-.32.17-.5.2-.13.02-.39-.01-.43.13-.15.55-.27,1.12-.4,1.67s-.26,1.13-.38,1.7c-.24,1.13-.46,2.27-.67,3.41s-.39,2.28-.55,3.43-.31,2.3-.44,3.45-.24,2.29-.32,3.44c-.11,1.44-.19,2.9-.67,4.26-.48,1.36-1.41,2.63-2.75,3.16.55.11,1.11.06,1.54-.29.43-.35.74-.84.99-1.33.85-1.7,1.14-3.62,1.29-5.52.15-1.9.18-3.81.56-5.67.23-1.11.59-2.2.78-3.32.31-1.78.2-3.61.53-5.39.04-.24.1-.5.26-.68.13-.15.32-.24.49-.32.21-.08.48-.05.65-.22.08-.09.14-.2.18-.31.08-.18.19-.32.28-.49.11-.19.22-.38.33-.57.3-.51.59-1.03.89-1.54.15-.26.3-.52.46-.79.09-.15.18-.3.26-.45.01-.02.02-.04.05-.06.03-.02.07-.01.1,0,.03,0,.06.01.09.03.04.03.04.1.07.15.03.06.08.12.12.18.12.16.26.3.41.42.31.25.68.42,1.07.52.77.21,1.59.18,2.39.21,2.68.1,5.32.94,7.57,2.39-1.78-.06-3.58.17-5.28.69,1.48,1.09,2.96,2.17,4.44,3.26-.85.48-.7,1.87.05,2.51.75.64,1.8.73,2.78.79.07.47-.43.84-.9.93-.47.09-.97.02-1.41.22-.61.27-.93.99-.92,1.66,0,.67.28,1.31.54,1.92,1.33,3.13,2.66,6.25,3.99,9.38-.69-.21-1.37-.43-2.06-.64.37,1.82.74,3.64,1.11,5.46-.21-.38-.67-.62-1.1-.57.24.86.48,1.74.39,2.63s-.61,1.79-1.46,2.07c-.55.18-1.31.19-1.49.74-.1.3.05.63-.02.94-.13.58-.93.74-1.49.51-.55-.23-.97-.7-1.51-.95-.54-.26-1.34-.2-1.55.36,1.47,2.19,1.85,4.93.82,7.35,1.15-.27,1.54-1.78,1.26-2.93s-1-2.17-1.21-3.34c-.06-.33-.06-.71.17-.95.4-.41,1.1-.06,1.46.38s.68,1.01,1.24,1.11c.57.1,1.12-.38,1.29-.94.17-.55.07-1.15-.04-1.72.93.77,2.46,0,2.89-1.13.2-.54.23-1.12.16-1.69-.06-.48-.37-1.17-.29-1.64.24.25.45.51.72.72.07.06.14.11.23.13s.19,0,.25-.06c.07-.09.05-.22.02-.33-.37-1.41-.76-2.82-1.12-4.23-.09-.37-.27-.92.1-1.21.38-.29.91.08,1.19.47.28.39.6.88,1.08.84.53-.04.77-.74.58-1.23s-.65-.81-1.07-1.14c-.53-.43-1.03-.93-1.3-1.55-.27-.63-.28-1.4.11-1.95-1.34-1.47-2.4-3.18-3.12-5.03-.4-1.04-.58-2.46.37-3.05.53-.33,1.21-.23,1.83-.32.62-.09,1.32-.57,1.18-1.18-.16-.69-1.1-.72-1.8-.75-.83-.03-1.74-.33-2.1-1.08-.36-.74.28-1.87,1.08-1.65-1.66-.52-3.17-1.51-4.3-2.82,1.59-.17,3.17-.35,4.76-.52.57-.06,1.24-.19,1.48-.72.2-.45-.05-1-.44-1.3-.39-.3-.89-.41-1.38-.51-2.08-.42-4.16-.86-6.24-1.3-1.04-.22-2.08-.43-3.12-.65-.43-.09-1.19-.1-1.56-.32"/>
  <path class="cls-1" d="M57.63,35.41c.35-.37.27-.97.13-1.47s-.31-1.04-.08-1.5c.13-.25.36-.44.51-.67.34-.53.23-1.24-.08-1.78s-.79-.97-1.21-1.42-.82-.99-.9-1.61c-.05-.44.06-.9,0-1.34-.11-.67-.62-1.19-1.04-1.73-.8-1.02-1.32-2.22-1.83-3.41-.25-.57-.49-1.27-.14-1.78.19-.28.5-.43.81-.57.48-.23.97-.46,1.45-.68-.77-.11-1.6.05-2.19.55s-.9,1.36-.63,2.09c.21.58.74,1,.97,1.57.23.55.17,1.2.45,1.73.36.68,1.2,1.03,1.45,1.76.2.57-.04,1.21.05,1.8.12.78.77,1.35,1.37,1.87s1.22,1.15,1.24,1.94c.01.37-.19.8-.56.84-.61.06-.84-.92-1.44-1.02-.36-.06-.7.24-.81.58s-.06.72,0,1.07c.14.89.3,1.81.86,2.51-.12-1-.23-2-.35-3-.02-.17-.02-.38.12-.48.39-.26.62.52.79.69.29.3.44.2.53.66s.09.97.18,1.45c.03.17.42,1.3.37,1.36Z"/>
  <path class="cls-1" d="M42.25,6.14c-.29-.14-.64-.29-.92-.14-.15.08-.24.22-.33.36-2.3,3.55-3.12,7.83-3.68,12.03s-.91,8.47-2.43,12.41c.74-2.38,1.42-4.79,1.91-7.24,1.05-5.29,1.22-10.86,3.55-15.72.27-.56.61-1.15,1.19-1.38.74-.28,1.54.12,2.25.46,2,.93,4.78,1.62,6.98,1.09-.67-.15-1.46-.05-2.15-.12-.73-.07-1.45-.18-2.17-.34-1.45-.31-2.86-.79-4.2-1.43Z"/>
  <path class="cls-1" d="M49.3,41.99c.64.9,1.46,1.67,2.39,2.26.19.12.45.23.62.08.12-.11.12-.3.05-.44s-.2-.25-.31-.36c-.18-.18-.35-.39-.38-.65s.11-.54.36-.6c.12-.02.24,0,.35-.02.26-.05.42-.32.44-.59s-.07-.52-.13-.77-.1-.54.02-.77c.16.66-.19,1.41-.79,1.73-.33.17-.78.31-.79.68,0,.19.12.35.26.48s.3.24.38.41.05.41-.12.49c-.24.11-.47-.17-.6-.41-.45-.83-1.04-1.59-1.74-2.24-.26-.24-.61-.53-.98-.44.03.35.75.84.97,1.15Z"/>
  <path class="cls-1" d="M14.03,39.38c1.9,3.11,4.88,5.54,8.3,6.79-3.4-1.28-6.29-3.8-8.15-6.92-.91-1.53-1.57-3.2-1.99-4.93-.39-1.62-.74-3.55-.5-5.21.14.83-.08,1.81-.03,2.67s.18,1.78.37,2.65c.39,1.74,1.06,3.42,2,4.94Z"/>
  <path class="cls-1" d="M21.46,21.39c-1.07-.91-1.8-2.25-2.54-3.42.34,1.3,1.54,2.57,2.54,3.42Z"/>
  <path class="cls-1" d="M27.38,29.94c-.23-.36-.45-.72-.68-1.08,1.71,2.14,3.93,3.89,6.42,5.04-4.1-2.21-7.52-5.65-9.7-9.76,1.2,1.7,2.68,3.19,4.37,4.39-1.82-1.29-3.12-3.25-4.81-4.67.17.95,1.26,2.06,1.82,2.83.81,1.12,1.68,2.2,2.58,3.24Z"/>
  <path class="cls-1" d="M13.54,16.9c.47-.46,1.25-.52,1.84-.23.69.34.92.92,1.17,1.59s.49,1.22.35,1.95c0,0,0,.02,0,.03-.25,1.22-1.72,2.5-2.68,1.1-.41-.59-.73-1.25-.96-1.93-.48-1.44,0-2.5,1.21-3.36.35-.25.78-.4,1.2-.32.49.1.87.5,1.14.92,1.06,1.6,1.1,3.81.12,5.46-.27.45-.62.87-1.1,1.07s-1.1.16-1.45-.23c-.12-.13-.2-.35-.09-.49.1-.12.28-.12.43-.12.95-.02,1.84-.68,2.23-1.55s.31-1.91-.1-2.77c-.29-.61-.78-1.15-1.41-1.38s-1.42-.08-1.84.45"/>
  <ellipse class="cls-1" cx="14.98" cy="18.93" rx="1.16" ry="2.12" transform="translate(-5.28 5.8) rotate(-18.69)"/>
</svg>